solid Case_solar
facet normal 0.0 -1.0 -4.093947403305264e-16
  outer loop
    vertex 144.27280405313917 60.604876417035385 21.484036830222717
    vertex 132.29044214334422 60.604876417035406 26.552185177644557
    vertex 116.77280405313917 60.604876417035385 21.484036830222717
  endloop
endfacet
facet normal 0.0 -1.0 -4.093947403305264e-16
  outer loop
    vertex 132.29044214334422 60.604876417035406 26.552185177644557
    vertex 144.27280405313917 60.604876417035385 21.484036830222717
    vertex 132.77280405313917 60.60487641703537 26.751986022653778
  endloop
endfacet
facet normal 0.0 -1.0 -4.093947403305264e-16
  outer loop
    vertex 132.77280405313917 60.60487641703537 26.751986022653778
    vertex 144.27280405313917 60.604876417035385 21.484036830222717
    vertex 144.27280405313917 60.60487641703533 33.333986644061156
  endloop
endfacet
facet normal 0.0 -1.0 -4.093947403305264e-16
  outer loop
    vertex 116.77280405313917 60.604876417035385 21.484036830222717
    vertex 132.29044214334422 60.604876417035406 26.552185177644557
    vertex 131.77280405313917 60.604876417035335 26.484036830222717
  endloop
endfacet
facet normal 0.0 -1.0 -4.093947403305264e-16
  outer loop
    vertex 116.77280405313917 60.604876417035385 21.484036830222717
    vertex 131.77280405313917 60.604876417035335 26.484036830222717
    vertex 89.27280405313915 60.604876417035385 21.484036830222717
  endloop
endfacet
facet normal 0.0 -1.0 -4.093947403305264e-16
  outer loop
    vertex 132.77280405313917 60.60487641703537 26.751986022653778
    vertex 144.27280405313917 60.60487641703533 33.333986644061156
    vertex 133.18701761551227 60.60487641703544 27.069823267849568
  endloop
endfacet
facet normal 0.0 -1.0 -4.093947403305264e-16
  outer loop
    vertex 133.18701761551227 60.60487641703544 27.069823267849568
    vertex 144.27280405313917 60.60487641703533 33.333986644061156
    vertex 133.50485486070804 60.60487641703537 27.484036830222692
  endloop
endfacet
facet normal 0.0 -1.0 -4.093947403305264e-16
  outer loop
    vertex 133.50485486070804 60.60487641703537 27.484036830222692
    vertex 144.27280405313917 60.60487641703533 33.333986644061156
    vertex 133.7046557057173 60.60487641703536 27.966398740017667
  endloop
endfacet
facet normal 0.0 -1.0 -4.093947403305264e-16
  outer loop
    vertex 133.7046557057173 60.60487641703536 27.966398740017667
    vertex 144.27280405313917 60.60487641703533 33.333986644061156
    vertex 133.77280405313917 60.60487641703539 28.484036830222713
  endloop
endfacet
facet normal 0.0 -1.0 -4.093947403305264e-16
  outer loop
    vertex 133.77280405313917 60.60487641703539 28.484036830222713
    vertex 144.27280405313917 60.60487641703533 33.333986644061156
    vertex 133.7046557057173 60.60487641703546 29.00167492042769
  endloop
endfacet
facet normal 0.0 -1.0 -4.093947403305264e-16
  outer loop
    vertex 133.7046557057173 60.60487641703546 29.00167492042769
    vertex 144.27280405313917 60.60487641703533 33.333986644061156
    vertex 133.50485486070804 60.60487641703539 29.484036830222678
  endloop
endfacet
facet normal 0.0 -1.0 -4.093947403305264e-16
  outer loop
    vertex 133.50485486070804 60.60487641703539 29.484036830222678
    vertex 144.27280405313917 60.60487641703533 33.333986644061156
    vertex 133.18701761551227 60.60487641703533 29.898250392595788
  endloop
endfacet
facet normal 0.0 -1.0 -4.093947403305264e-16
  outer loop
    vertex 133.18701761551227 60.60487641703533 29.898250392595788
    vertex 144.27280405313917 60.60487641703533 33.333986644061156
    vertex 132.77280405313917 60.60487641703535 30.21608763779158
  endloop
endfacet
facet normal 0.0 -1.0 -4.093947403305264e-16
  outer loop
    vertex 132.77280405313917 60.60487641703535 30.21608763779158
    vertex 144.27280405313917 60.60487641703533 33.333986644061156
    vertex 132.29044214334422 60.60487641703533 30.415888482800856
  endloop
endfacet
facet normal 0.0 -1.0 -4.093947403305264e-16
  outer loop
    vertex 132.29044214334422 60.60487641703533 30.415888482800856
    vertex 144.27280405313917 60.60487641703533 33.333986644061156
    vertex 131.77280405313917 60.60487641703539 30.484036830222664
  endloop
endfacet
facet normal 0.0 -1.0 -4.093947403305264e-16
  outer loop
    vertex 131.77280405313917 60.60487641703539 30.484036830222664
    vertex 144.27280405313917 60.60487641703533 33.333986644061156
    vertex 101.77280405313918 60.60487641703539 30.484036830222664
  endloop
endfacet
facet normal 0.0 -1.0 -4.093947403305264e-16
  outer loop
    vertex 89.27280405313915 60.604876417035385 21.484036830222717
    vertex 100.77280405313918 60.60487641703537 26.751986022653778
    vertex 89.27280405313915 60.60487641703533 33.333986644061156
  endloop
endfacet
facet normal 0.0 -1.0 -4.093947403305264e-16
  outer loop
    vertex 100.77280405313918 60.60487641703537 26.751986022653778
    vertex 89.27280405313915 60.604876417035385 21.484036830222717
    vertex 101.25516596293413 60.604876417035406 26.552185177644557
  endloop
endfacet
facet normal 0.0 -1.0 -4.093947403305264e-16
  outer loop
    vertex 101.25516596293413 60.604876417035406 26.552185177644557
    vertex 89.27280405313915 60.604876417035385 21.484036830222717
    vertex 101.77280405313918 60.604876417035335 26.484036830222717
  endloop
endfacet
facet normal 0.0 -1.0 -4.093947403305264e-16
  outer loop
    vertex 101.77280405313918 60.604876417035335 26.484036830222717
    vertex 89.27280405313915 60.604876417035385 21.484036830222717
    vertex 131.77280405313917 60.604876417035335 26.484036830222717
  endloop
endfacet
facet normal 0.0 -1.0 -4.093947403305264e-16
  outer loop
    vertex 89.27280405313915 60.60487641703533 33.333986644061156
    vertex 100.77280405313918 60.60487641703537 26.751986022653778
    vertex 100.35859049076609 60.60487641703544 27.069823267849568
  endloop
endfacet
facet normal 0.0 -1.0 -4.093947403305264e-16
  outer loop
    vertex 89.27280405313915 60.60487641703533 33.333986644061156
    vertex 100.35859049076609 60.60487641703544 27.069823267849568
    vertex 100.0407532455703 60.60487641703537 27.484036830222692
  endloop
endfacet
facet normal 0.0 -1.0 -4.093947403305264e-16
  outer loop
    vertex 89.27280405313915 60.60487641703533 33.333986644061156
    vertex 100.0407532455703 60.60487641703537 27.484036830222692
    vertex 99.84095240056105 60.60487641703536 27.966398740017667
  endloop
endfacet
facet normal 0.0 -1.0 -4.093947403305264e-16
  outer loop
    vertex 89.27280405313915 60.60487641703533 33.333986644061156
    vertex 99.84095240056105 60.60487641703536 27.966398740017667
    vertex 99.77280405313918 60.60487641703539 28.484036830222713
  endloop
endfacet
facet normal 0.0 -1.0 -4.093947403305264e-16
  outer loop
    vertex 89.27280405313915 60.60487641703533 33.333986644061156
    vertex 99.77280405313918 60.60487641703539 28.484036830222713
    vertex 99.84095240056105 60.60487641703547 29.001674920427703
  endloop
endfacet
facet normal 0.0 -1.0 -4.093947403305264e-16
  outer loop
    vertex 89.27280405313915 60.60487641703533 33.333986644061156
    vertex 99.84095240056105 60.60487641703547 29.001674920427703
    vertex 100.0407532455703 60.60487641703539 29.484036830222678
  endloop
endfacet
facet normal 0.0 -1.0 -4.093947403305264e-16
  outer loop
    vertex 89.27280405313915 60.60487641703533 33.333986644061156
    vertex 100.0407532455703 60.60487641703539 29.484036830222678
    vertex 100.35859049076609 60.60487641703533 29.898250392595788
  endloop
endfacet
facet normal 0.0 -1.0 -4.093947403305264e-16
  outer loop
    vertex 89.27280405313915 60.60487641703533 33.333986644061156
    vertex 100.35859049076609 60.60487641703533 29.898250392595788
    vertex 100.77280405313918 60.60487641703535 30.21608763779158
  endloop
endfacet
facet normal 0.0 -1.0 -4.093947403305264e-16
  outer loop
    vertex 89.27280405313915 60.60487641703533 33.333986644061156
    vertex 100.77280405313918 60.60487641703535 30.21608763779158
    vertex 101.25516596293414 60.60487641703533 30.415888482800856
  endloop
endfacet
facet normal 0.0 -1.0 -4.093947403305264e-16
  outer loop
    vertex 89.27280405313915 60.60487641703533 33.333986644061156
    vertex 101.25516596293414 60.60487641703533 30.415888482800856
    vertex 101.77280405313918 60.60487641703539 30.484036830222664
  endloop
endfacet
facet normal 0.0 -1.0 -4.093947403305264e-16
  outer loop
    vertex 89.27280405313915 60.60487641703533 33.333986644061156
    vertex 101.77280405313918 60.60487641703539 30.484036830222664
    vertex 144.27280405313917 60.60487641703533 33.333986644061156
  endloop
endfacet
facet normal 0.0 -1.0 -4.093947403305264e-16
  outer loop
    vertex 131.25516596293411 60.604876417035406 26.552185177644557
    vertex 101.77280405313918 60.604876417035335 26.484036830222717
    vertex 131.77280405313917 60.604876417035335 26.484036830222717
  endloop
endfacet
facet normal 0.0 -1.0 -4.093947403305264e-16
  outer loop
    vertex 101.77280405313918 60.604876417035335 26.484036830222717
    vertex 131.25516596293411 60.604876417035406 26.552185177644557
    vertex 102.29044214334422 60.604876417035406 26.552185177644557
  endloop
endfacet
facet normal 0.0 -1.0 -4.093947403305264e-16
  outer loop
    vertex 102.29044214334422 60.604876417035406 26.552185177644557
    vertex 131.25516596293411 60.604876417035406 26.552185177644557
    vertex 130.77280405313917 60.60487641703537 26.751986022653778
  endloop
endfacet
facet normal 0.0 -1.0 -4.093947403305264e-16
  outer loop
    vertex 102.29044214334422 60.604876417035406 26.552185177644557
    vertex 130.77280405313917 60.60487641703537 26.751986022653778
    vertex 102.77280405313918 60.60487641703537 26.751986022653778
  endloop
endfacet
facet normal 0.0 -1.0 -4.093947403305264e-16
  outer loop
    vertex 102.77280405313918 60.60487641703537 26.751986022653778
    vertex 130.77280405313917 60.60487641703537 26.751986022653778
    vertex 130.35859049076606 60.60487641703544 27.069823267849568
  endloop
endfacet
facet normal 0.0 -1.0 -4.093947403305264e-16
  outer loop
    vertex 102.77280405313918 60.60487641703537 26.751986022653778
    vertex 130.35859049076606 60.60487641703544 27.069823267849568
    vertex 103.18701761551227 60.60487641703544 27.069823267849568
  endloop
endfacet
facet normal 0.0 -1.0 -4.093947403305264e-16
  outer loop
    vertex 103.18701761551227 60.60487641703544 27.069823267849568
    vertex 130.35859049076606 60.60487641703544 27.069823267849568
    vertex 130.0407532455703 60.60487641703537 27.484036830222692
  endloop
endfacet
facet normal 0.0 -1.0 -4.093947403305264e-16
  outer loop
    vertex 103.18701761551227 60.60487641703544 27.069823267849568
    vertex 130.0407532455703 60.60487641703537 27.484036830222692
    vertex 103.50485486070805 60.60487641703537 27.484036830222692
  endloop
endfacet
facet normal 0.0 -1.0 -4.093947403305264e-16
  outer loop
    vertex 103.50485486070805 60.60487641703537 27.484036830222692
    vertex 130.0407532455703 60.60487641703537 27.484036830222692
    vertex 129.84095240056104 60.60487641703536 27.966398740017667
  endloop
endfacet
facet normal 0.0 -1.0 -4.093947403305264e-16
  outer loop
    vertex 103.50485486070805 60.60487641703537 27.484036830222692
    vertex 129.84095240056104 60.60487641703536 27.966398740017667
    vertex 103.70465570571733 60.60487641703536 27.966398740017667
  endloop
endfacet
facet normal 0.0 -1.0 -4.093947403305264e-16
  outer loop
    vertex 103.70465570571733 60.60487641703536 27.966398740017667
    vertex 129.84095240056104 60.60487641703536 27.966398740017667
    vertex 129.77280405313917 60.60487641703539 28.484036830222713
  endloop
endfacet
facet normal 0.0 -1.0 -4.093947403305264e-16
  outer loop
    vertex 103.70465570571733 60.60487641703536 27.966398740017667
    vertex 129.77280405313917 60.60487641703539 28.484036830222713
    vertex 103.77280405313918 60.60487641703539 28.484036830222713
  endloop
endfacet
facet normal 0.0 -1.0 -4.093947403305264e-16
  outer loop
    vertex 103.77280405313918 60.60487641703539 28.484036830222713
    vertex 129.77280405313917 60.60487641703539 28.484036830222713
    vertex 129.84095240056104 60.60487641703547 29.001674920427703
  endloop
endfacet
facet normal 0.0 -1.0 -4.093947403305264e-16
  outer loop
    vertex 103.77280405313918 60.60487641703539 28.484036830222713
    vertex 129.84095240056104 60.60487641703547 29.001674920427703
    vertex 103.70465570571733 60.60487641703546 29.00167492042769
  endloop
endfacet
facet normal 0.0 -1.0 -4.093947403305264e-16
  outer loop
    vertex 103.70465570571733 60.60487641703546 29.00167492042769
    vertex 129.84095240056104 60.60487641703547 29.001674920427703
    vertex 103.50485486070805 60.60487641703539 29.484036830222678
  endloop
endfacet
facet normal 0.0 -1.0 -4.093947403305264e-16
  outer loop
    vertex 103.50485486070805 60.60487641703539 29.484036830222678
    vertex 129.84095240056104 60.60487641703547 29.001674920427703
    vertex 130.0407532455703 60.60487641703539 29.484036830222678
  endloop
endfacet
facet normal 0.0 -1.0 -4.093947403305264e-16
  outer loop
    vertex 103.50485486070805 60.60487641703539 29.484036830222678
    vertex 130.0407532455703 60.60487641703539 29.484036830222678
    vertex 130.35859049076606 60.60487641703533 29.898250392595788
  endloop
endfacet
facet normal 0.0 -1.0 -4.093947403305264e-16
  outer loop
    vertex 103.50485486070805 60.60487641703539 29.484036830222678
    vertex 130.35859049076606 60.60487641703533 29.898250392595788
    vertex 103.18701761551227 60.60487641703533 29.898250392595788
  endloop
endfacet
facet normal 0.0 -1.0 -4.093947403305264e-16
  outer loop
    vertex 103.18701761551227 60.60487641703533 29.898250392595788
    vertex 130.35859049076606 60.60487641703533 29.898250392595788
    vertex 130.77280405313917 60.60487641703535 30.21608763779158
  endloop
endfacet
facet normal 0.0 -1.0 -4.093947403305264e-16
  outer loop
    vertex 103.18701761551227 60.60487641703533 29.898250392595788
    vertex 130.77280405313917 60.60487641703535 30.21608763779158
    vertex 102.77280405313918 60.60487641703535 30.21608763779158
  endloop
endfacet
facet normal 0.0 -1.0 -4.093947403305264e-16
  outer loop
    vertex 102.77280405313918 60.60487641703535 30.21608763779158
    vertex 130.77280405313917 60.60487641703535 30.21608763779158
    vertex 131.25516596293411 60.60487641703533 30.415888482800856
  endloop
endfacet
facet normal 0.0 -1.0 -4.093947403305264e-16
  outer loop
    vertex 102.77280405313918 60.60487641703535 30.21608763779158
    vertex 131.25516596293411 60.60487641703533 30.415888482800856
    vertex 102.29044214334422 60.60487641703533 30.415888482800856
  endloop
endfacet
facet normal 0.0 -1.0 -4.093947403305264e-16
  outer loop
    vertex 102.29044214334422 60.60487641703533 30.415888482800856
    vertex 131.25516596293411 60.60487641703533 30.415888482800856
    vertex 131.77280405313917 60.60487641703539 30.484036830222664
  endloop
endfacet
facet normal 0.0 -1.0 -4.093947403305264e-16
  outer loop
    vertex 102.29044214334422 60.60487641703533 30.415888482800856
    vertex 131.77280405313917 60.60487641703539 30.484036830222664
    vertex 101.77280405313918 60.60487641703539 30.484036830222664
  endloop
endfacet
facet normal 0.0 1.0 4.093947403305264e-16
  outer loop
    vertex 89.27280405313915 62.404876417035425 23.484036830222692
    vertex 101.77280405313918 62.40487641703538 26.48403683022267
    vertex 144.27280405313917 62.404876417035425 23.484036830222692
  endloop
endfacet
facet normal 0.0 1.0 4.093947403305264e-16
  outer loop
    vertex 101.77280405313918 62.40487641703538 26.48403683022267
    vertex 89.27280405313915 62.404876417035425 23.484036830222692
    vertex 101.25516596293413 62.40487641703541 26.552185177644546
  endloop
endfacet
facet normal 0.0 1.0 4.093947403305264e-16
  outer loop
    vertex 101.25516596293413 62.40487641703541 26.552185177644546
    vertex 89.27280405313915 62.404876417035425 23.484036830222692
    vertex 100.77280405313918 62.404876417035425 26.751986022653824
  endloop
endfacet
facet normal 0.0 1.0 4.093947403305264e-16
  outer loop
    vertex 100.77280405313918 62.404876417035425 26.751986022653824
    vertex 89.27280405313915 62.404876417035425 23.484036830222692
    vertex 89.27280405313915 62.40487641703536 33.33398664406117
  endloop
endfacet
facet normal 0.0 1.0 4.093947403305264e-16
  outer loop
    vertex 100.77280405313918 62.404876417035425 26.751986022653824
    vertex 89.27280405313915 62.40487641703536 33.33398664406117
    vertex 100.35859049076609 62.40487641703537 27.06982326784966
  endloop
endfacet
facet normal 0.0 1.0 4.093947403305264e-16
  outer loop
    vertex 100.35859049076609 62.40487641703537 27.06982326784966
    vertex 89.27280405313915 62.40487641703536 33.33398664406117
    vertex 100.0407532455703 62.40487641703539 27.484036830222728
  endloop
endfacet
facet normal 0.0 1.0 4.093947403305264e-16
  outer loop
    vertex 100.0407532455703 62.40487641703539 27.484036830222728
    vertex 89.27280405313915 62.40487641703536 33.33398664406117
    vertex 99.84095240056105 62.40487641703536 27.966398740017645
  endloop
endfacet
facet normal 0.0 1.0 4.093947403305264e-16
  outer loop
    vertex 99.84095240056105 62.40487641703536 27.966398740017645
    vertex 89.27280405313915 62.40487641703536 33.33398664406117
    vertex 99.77280405313918 62.404876417035446 28.484036830222678
  endloop
endfacet
facet normal 0.0 1.0 4.093947403305264e-16
  outer loop
    vertex 99.77280405313918 62.404876417035446 28.484036830222678
    vertex 89.27280405313915 62.40487641703536 33.33398664406117
    vertex 99.84095240056105 62.40487641703533 29.00167492042778
  endloop
endfacet
facet normal 0.0 1.0 4.093947403305264e-16
  outer loop
    vertex 99.84095240056105 62.40487641703533 29.00167492042778
    vertex 89.27280405313915 62.40487641703536 33.33398664406117
    vertex 100.0407532455703 62.40487641703541 29.4840368302227
  endloop
endfacet
facet normal 0.0 1.0 4.093947403305264e-16
  outer loop
    vertex 100.0407532455703 62.40487641703541 29.4840368302227
    vertex 89.27280405313915 62.40487641703536 33.33398664406117
    vertex 100.35859049076609 62.40487641703538 29.898250392595777
  endloop
endfacet
facet normal 0.0 1.0 4.093947403305264e-16
  outer loop
    vertex 100.35859049076609 62.40487641703538 29.898250392595777
    vertex 89.27280405313915 62.40487641703536 33.33398664406117
    vertex 100.77280405313918 62.40487641703535 30.216087637791603
  endloop
endfacet
facet normal 0.0 1.0 4.093947403305264e-16
  outer loop
    vertex 100.77280405313918 62.40487641703535 30.216087637791603
    vertex 89.27280405313915 62.40487641703536 33.33398664406117
    vertex 101.25516596293414 62.40487641703541 30.415888482800845
  endloop
endfacet
facet normal 0.0 1.0 4.093947403305264e-16
  outer loop
    vertex 101.25516596293414 62.40487641703541 30.415888482800845
    vertex 89.27280405313915 62.40487641703536 33.33398664406117
    vertex 101.77280405313918 62.40487641703541 30.484036830222664
  endloop
endfacet
facet normal 0.0 1.0 4.093947403305264e-16
  outer loop
    vertex 101.77280405313918 62.40487641703541 30.484036830222664
    vertex 89.27280405313915 62.40487641703536 33.33398664406117
    vertex 131.77280405313917 62.40487641703541 30.484036830222664
  endloop
endfacet
facet normal 0.0 1.0 4.093947403305264e-16
  outer loop
    vertex 144.27280405313917 62.404876417035425 23.484036830222692
    vertex 132.77280405313917 62.404876417035425 26.751986022653824
    vertex 144.27280405313917 62.40487641703536 33.33398664406117
  endloop
endfacet
facet normal 0.0 1.0 4.093947403305264e-16
  outer loop
    vertex 132.77280405313917 62.404876417035425 26.751986022653824
    vertex 144.27280405313917 62.404876417035425 23.484036830222692
    vertex 132.29044214334422 62.40487641703541 26.552185177644546
  endloop
endfacet
facet normal 0.0 1.0 4.093947403305264e-16
  outer loop
    vertex 132.29044214334422 62.40487641703541 26.552185177644546
    vertex 144.27280405313917 62.404876417035425 23.484036830222692
    vertex 131.77280405313917 62.40487641703538 26.48403683022267
  endloop
endfacet
facet normal 0.0 1.0 4.093947403305264e-16
  outer loop
    vertex 131.77280405313917 62.40487641703538 26.48403683022267
    vertex 144.27280405313917 62.404876417035425 23.484036830222692
    vertex 101.77280405313918 62.40487641703538 26.48403683022267
  endloop
endfacet
facet normal 0.0 1.0 4.093947403305264e-16
  outer loop
    vertex 144.27280405313917 62.40487641703536 33.33398664406117
    vertex 132.77280405313917 62.404876417035425 26.751986022653824
    vertex 133.18701761551227 62.40487641703537 27.06982326784966
  endloop
endfacet
facet normal 0.0 1.0 4.093947403305264e-16
  outer loop
    vertex 144.27280405313917 62.40487641703536 33.33398664406117
    vertex 133.18701761551227 62.40487641703537 27.06982326784966
    vertex 133.50485486070804 62.40487641703539 27.484036830222728
  endloop
endfacet
facet normal 0.0 1.0 4.093947403305264e-16
  outer loop
    vertex 144.27280405313917 62.40487641703536 33.33398664406117
    vertex 133.50485486070804 62.40487641703539 27.484036830222728
    vertex 133.7046557057173 62.40487641703536 27.966398740017645
  endloop
endfacet
facet normal 0.0 1.0 4.093947403305264e-16
  outer loop
    vertex 144.27280405313917 62.40487641703536 33.33398664406117
    vertex 133.7046557057173 62.40487641703536 27.966398740017645
    vertex 133.77280405313917 62.404876417035446 28.484036830222678
  endloop
endfacet
facet normal 0.0 1.0 4.093947403305264e-16
  outer loop
    vertex 144.27280405313917 62.40487641703536 33.33398664406117
    vertex 133.77280405313917 62.404876417035446 28.484036830222678
    vertex 133.7046557057173 62.40487641703533 29.00167492042777
  endloop
endfacet
facet normal 0.0 1.0 4.093947403305264e-16
  outer loop
    vertex 144.27280405313917 62.40487641703536 33.33398664406117
    vertex 133.7046557057173 62.40487641703533 29.00167492042777
    vertex 133.50485486070804 62.40487641703541 29.4840368302227
  endloop
endfacet
facet normal 0.0 1.0 4.093947403305264e-16
  outer loop
    vertex 144.27280405313917 62.40487641703536 33.33398664406117
    vertex 133.50485486070804 62.40487641703541 29.4840368302227
    vertex 133.18701761551227 62.40487641703538 29.898250392595777
  endloop
endfacet
facet normal 0.0 1.0 4.093947403305264e-16
  outer loop
    vertex 144.27280405313917 62.40487641703536 33.33398664406117
    vertex 133.18701761551227 62.40487641703538 29.898250392595777
    vertex 132.77280405313917 62.40487641703535 30.216087637791603
  endloop
endfacet
facet normal 0.0 1.0 4.093947403305264e-16
  outer loop
    vertex 144.27280405313917 62.40487641703536 33.33398664406117
    vertex 132.77280405313917 62.40487641703535 30.216087637791603
    vertex 132.29044214334422 62.40487641703541 30.415888482800845
  endloop
endfacet
facet normal 0.0 1.0 4.093947403305264e-16
  outer loop
    vertex 144.27280405313917 62.40487641703536 33.33398664406117
    vertex 132.29044214334422 62.40487641703541 30.415888482800845
    vertex 131.77280405313917 62.40487641703541 30.484036830222664
  endloop
endfacet
facet normal 0.0 1.0 4.093947403305264e-16
  outer loop
    vertex 144.27280405313917 62.40487641703536 33.33398664406117
    vertex 131.77280405313917 62.40487641703541 30.484036830222664
    vertex 89.27280405313915 62.40487641703536 33.33398664406117
  endloop
endfacet
facet normal 0.0 1.0 4.093947403305264e-16
  outer loop
    vertex 102.29044214334422 62.40487641703541 26.552185177644546
    vertex 131.77280405313917 62.40487641703538 26.48403683022267
    vertex 101.77280405313918 62.40487641703538 26.48403683022267
  endloop
endfacet
facet normal 0.0 1.0 4.093947403305264e-16
  outer loop
    vertex 131.77280405313917 62.40487641703538 26.48403683022267
    vertex 102.29044214334422 62.40487641703541 26.552185177644546
    vertex 131.25516596293411 62.40487641703541 26.552185177644546
  endloop
endfacet
facet normal 0.0 1.0 4.093947403305264e-16
  outer loop
    vertex 131.25516596293411 62.40487641703541 26.552185177644546
    vertex 102.29044214334422 62.40487641703541 26.552185177644546
    vertex 102.77280405313918 62.404876417035425 26.751986022653824
  endloop
endfacet
facet normal 0.0 1.0 4.093947403305264e-16
  outer loop
    vertex 131.25516596293411 62.40487641703541 26.552185177644546
    vertex 102.77280405313918 62.404876417035425 26.751986022653824
    vertex 130.77280405313917 62.404876417035425 26.751986022653824
  endloop
endfacet
facet normal 0.0 1.0 4.093947403305264e-16
  outer loop
    vertex 130.77280405313917 62.404876417035425 26.751986022653824
    vertex 102.77280405313918 62.404876417035425 26.751986022653824
    vertex 103.18701761551227 62.40487641703537 27.06982326784966
  endloop
endfacet
facet normal 0.0 1.0 4.093947403305264e-16
  outer loop
    vertex 130.77280405313917 62.404876417035425 26.751986022653824
    vertex 103.18701761551227 62.40487641703537 27.06982326784966
    vertex 130.35859049076606 62.40487641703537 27.06982326784966
  endloop
endfacet
facet normal 0.0 1.0 4.093947403305264e-16
  outer loop
    vertex 130.35859049076606 62.40487641703537 27.06982326784966
    vertex 103.18701761551227 62.40487641703537 27.06982326784966
    vertex 103.50485486070805 62.40487641703539 27.484036830222728
  endloop
endfacet
facet normal 0.0 1.0 4.093947403305264e-16
  outer loop
    vertex 130.35859049076606 62.40487641703537 27.06982326784966
    vertex 103.50485486070805 62.40487641703539 27.484036830222728
    vertex 130.0407532455703 62.40487641703539 27.484036830222728
  endloop
endfacet
facet normal 0.0 1.0 4.093947403305264e-16
  outer loop
    vertex 130.0407532455703 62.40487641703539 27.484036830222728
    vertex 103.50485486070805 62.40487641703539 27.484036830222728
    vertex 103.70465570571733 62.40487641703536 27.966398740017645
  endloop
endfacet
facet normal 0.0 1.0 4.093947403305264e-16
  outer loop
    vertex 130.0407532455703 62.40487641703539 27.484036830222728
    vertex 103.70465570571733 62.40487641703536 27.966398740017645
    vertex 129.84095240056104 62.40487641703536 27.966398740017645
  endloop
endfacet
facet normal 0.0 1.0 4.093947403305264e-16
  outer loop
    vertex 129.84095240056104 62.40487641703536 27.966398740017645
    vertex 103.70465570571733 62.40487641703536 27.966398740017645
    vertex 103.77280405313918 62.404876417035446 28.484036830222678
  endloop
endfacet
facet normal 0.0 1.0 4.093947403305264e-16
  outer loop
    vertex 129.84095240056104 62.40487641703536 27.966398740017645
    vertex 103.77280405313918 62.404876417035446 28.484036830222678
    vertex 129.77280405313917 62.404876417035446 28.484036830222678
  endloop
endfacet
facet normal 0.0 1.0 4.093947403305264e-16
  outer loop
    vertex 129.77280405313917 62.404876417035446 28.484036830222678
    vertex 103.77280405313918 62.404876417035446 28.484036830222678
    vertex 103.70465570571733 62.40487641703533 29.00167492042777
  endloop
endfacet
facet normal 0.0 1.0 4.093947403305264e-16
  outer loop
    vertex 129.77280405313917 62.404876417035446 28.484036830222678
    vertex 103.70465570571733 62.40487641703533 29.00167492042777
    vertex 129.84095240056104 62.40487641703533 29.00167492042778
  endloop
endfacet
facet normal 0.0 1.0 4.093947403305264e-16
  outer loop
    vertex 129.84095240056104 62.40487641703533 29.00167492042778
    vertex 103.70465570571733 62.40487641703533 29.00167492042777
    vertex 103.50485486070805 62.40487641703541 29.4840368302227
  endloop
endfacet
facet normal 0.0 1.0 4.093947403305264e-16
  outer loop
    vertex 129.84095240056104 62.40487641703533 29.00167492042778
    vertex 103.50485486070805 62.40487641703541 29.4840368302227
    vertex 130.0407532455703 62.40487641703541 29.4840368302227
  endloop
endfacet
facet normal 0.0 1.0 4.093947403305264e-16
  outer loop
    vertex 130.0407532455703 62.40487641703541 29.4840368302227
    vertex 103.50485486070805 62.40487641703541 29.4840368302227
    vertex 103.18701761551227 62.40487641703538 29.898250392595777
  endloop
endfacet
facet normal 0.0 1.0 4.093947403305264e-16
  outer loop
    vertex 130.0407532455703 62.40487641703541 29.4840368302227
    vertex 103.18701761551227 62.40487641703538 29.898250392595777
    vertex 130.35859049076606 62.40487641703538 29.898250392595777
  endloop
endfacet
facet normal 0.0 1.0 4.093947403305264e-16
  outer loop
    vertex 130.35859049076606 62.40487641703538 29.898250392595777
    vertex 103.18701761551227 62.40487641703538 29.898250392595777
    vertex 102.77280405313918 62.40487641703535 30.216087637791603
  endloop
endfacet
facet normal 0.0 1.0 4.093947403305264e-16
  outer loop
    vertex 130.35859049076606 62.40487641703538 29.898250392595777
    vertex 102.77280405313918 62.40487641703535 30.216087637791603
    vertex 130.77280405313917 62.40487641703535 30.216087637791603
  endloop
endfacet
facet normal 0.0 1.0 4.093947403305264e-16
  outer loop
    vertex 130.77280405313917 62.40487641703535 30.216087637791603
    vertex 102.77280405313918 62.40487641703535 30.216087637791603
    vertex 102.29044214334422 62.40487641703541 30.415888482800845
  endloop
endfacet
facet normal 0.0 1.0 4.093947403305264e-16
  outer loop
    vertex 130.77280405313917 62.40487641703535 30.216087637791603
    vertex 102.29044214334422 62.40487641703541 30.415888482800845
    vertex 131.25516596293411 62.40487641703541 30.415888482800845
  endloop
endfacet
facet normal 0.0 1.0 4.093947403305264e-16
  outer loop
    vertex 131.25516596293411 62.40487641703541 30.415888482800845
    vertex 102.29044214334422 62.40487641703541 30.415888482800845
    vertex 101.77280405313918 62.40487641703541 30.484036830222664
  endloop
endfacet
facet normal 0.0 1.0 4.093947403305264e-16
  outer loop
    vertex 131.25516596293411 62.40487641703541 30.415888482800845
    vertex 101.77280405313918 62.40487641703541 30.484036830222664
    vertex 131.77280405313917 62.40487641703541 30.484036830222664
  endloop
endfacet
facet normal 0.9914448613738134 5.204170427930421e-18 0.1305261922200295
  outer loop
    vertex 129.84095240056104 62.40487641703536 27.966398740017645
    vertex 129.77280405313917 60.60487641703539 28.484036830222713
    vertex 129.84095240056104 60.60487641703536 27.966398740017667
  endloop
endfacet
facet normal 0.9914448613738134 5.204170427930421e-18 0.1305261922200295
  outer loop
    vertex 129.77280405313917 60.60487641703539 28.484036830222713
    vertex 129.84095240056104 62.40487641703536 27.966398740017645
    vertex 129.77280405313917 62.404876417035446 28.484036830222678
  endloop
endfacet
facet normal 0.9914448613738077 -1.6479873021779667e-17 -0.1305261922200719
  outer loop
    vertex 129.77280405313917 62.404876417035446 28.484036830222678
    vertex 129.84095240056104 60.60487641703547 29.001674920427703
    vertex 129.77280405313917 60.60487641703539 28.484036830222713
  endloop
endfacet
facet normal 0.9914448613738077 -1.6479873021779667e-17 -0.1305261922200719
  outer loop
    vertex 129.84095240056104 60.60487641703547 29.001674920427703
    vertex 129.77280405313917 62.404876417035446 28.484036830222678
    vertex 129.84095240056104 62.40487641703533 29.00167492042778
  endloop
endfacet
facet normal 0.9238795325112886 -5.204170427930421e-17 -0.38268343236508545
  outer loop
    vertex 129.84095240056104 60.60487641703547 29.001674920427703
    vertex 130.0407532455703 62.40487641703541 29.4840368302227
    vertex 130.0407532455703 60.60487641703539 29.484036830222678
  endloop
endfacet
facet normal 0.9238795325112886 -5.204170427930421e-17 -0.38268343236508545
  outer loop
    vertex 130.0407532455703 62.40487641703541 29.4840368302227
    vertex 129.84095240056104 60.60487641703547 29.001674920427703
    vertex 129.84095240056104 62.40487641703533 29.00167492042778
  endloop
endfacet
facet normal 0.7933533402912439 -4.85722573273506e-17 -0.6087614290087094
  outer loop
    vertex 130.0407532455703 60.60487641703539 29.484036830222678
    vertex 130.35859049076606 62.40487641703538 29.898250392595777
    vertex 130.35859049076606 60.60487641703533 29.898250392595788
  endloop
endfacet
facet normal 0.7933533402912439 -4.85722573273506e-17 -0.6087614290087094
  outer loop
    vertex 130.35859049076606 62.40487641703538 29.898250392595777
    vertex 130.0407532455703 60.60487641703539 29.484036830222678
    vertex 130.0407532455703 62.40487641703541 29.4840368302227
  endloop
endfacet
facet normal 0.6087614290087264 9.020562075079399e-17 -0.7933533402912308
  outer loop
    vertex 130.77280405313917 62.40487641703535 30.216087637791603
    vertex 130.35859049076606 60.60487641703533 29.898250392595788
    vertex 130.35859049076606 62.40487641703538 29.898250392595777
  endloop
endfacet
facet normal 0.6087614290087264 9.020562075079399e-17 -0.7933533402912308
  outer loop
    vertex 130.35859049076606 60.60487641703533 29.898250392595788
    vertex 130.77280405313917 62.40487641703535 30.216087637791603
    vertex 130.77280405313917 60.60487641703535 30.21608763779158
  endloop
endfacet
facet normal 0.38268343236508584 3.191891195797325e-16 -0.9238795325112883
  outer loop
    vertex 131.25516596293411 62.40487641703541 30.415888482800845
    vertex 130.77280405313917 60.60487641703535 30.21608763779158
    vertex 130.77280405313917 62.40487641703535 30.216087637791603
  endloop
endfacet
facet normal 0.38268343236508584 3.191891195797325e-16 -0.9238795325112883
  outer loop
    vertex 130.77280405313917 60.60487641703535 30.21608763779158
    vertex 131.25516596293411 62.40487641703541 30.415888482800845
    vertex 131.25516596293411 60.60487641703533 30.415888482800856
  endloop
endfacet
facet normal 0.1305261922200508 -2.081668171172168e-17 -0.9914448613738105
  outer loop
    vertex 131.77280405313917 62.40487641703541 30.484036830222664
    vertex 131.25516596293411 60.60487641703533 30.415888482800856
    vertex 131.25516596293411 62.40487641703541 30.415888482800845
  endloop
endfacet
facet normal 0.1305261922200508 -2.081668171172168e-17 -0.9914448613738105
  outer loop
    vertex 131.25516596293411 60.60487641703533 30.415888482800856
    vertex 131.77280405313917 62.40487641703541 30.484036830222664
    vertex 131.77280405313917 60.60487641703539 30.484036830222664
  endloop
endfacet
facet normal -0.1305261922200508 -2.081668171172168e-17 -0.9914448613738105
  outer loop
    vertex 132.29044214334422 62.40487641703541 30.415888482800845
    vertex 131.77280405313917 60.60487641703539 30.484036830222664
    vertex 131.77280405313917 62.40487641703541 30.484036830222664
  endloop
endfacet
facet normal -0.1305261922200508 -2.081668171172168e-17 -0.9914448613738105
  outer loop
    vertex 131.77280405313917 60.60487641703539 30.484036830222664
    vertex 132.29044214334422 62.40487641703541 30.415888482800845
    vertex 132.29044214334422 60.60487641703533 30.415888482800856
  endloop
endfacet
facet normal -0.38268343236508584 3.191891195797325e-16 -0.9238795325112883
  outer loop
    vertex 132.77280405313917 62.40487641703535 30.216087637791603
    vertex 132.29044214334422 60.60487641703533 30.415888482800856
    vertex 132.29044214334422 62.40487641703541 30.415888482800845
  endloop
endfacet
facet normal -0.38268343236508584 3.191891195797325e-16 -0.9238795325112883
  outer loop
    vertex 132.29044214334422 60.60487641703533 30.415888482800856
    vertex 132.77280405313917 62.40487641703535 30.216087637791603
    vertex 132.77280405313917 60.60487641703535 30.21608763779158
  endloop
endfacet
facet normal -0.6087614290087264 9.020562075079399e-17 -0.7933533402912308
  outer loop
    vertex 133.18701761551227 62.40487641703538 29.898250392595777
    vertex 132.77280405313917 60.60487641703535 30.21608763779158
    vertex 132.77280405313917 62.40487641703535 30.216087637791603
  endloop
endfacet
facet normal -0.6087614290087264 9.020562075079399e-17 -0.7933533402912308
  outer loop
    vertex 132.77280405313917 60.60487641703535 30.21608763779158
    vertex 133.18701761551227 62.40487641703538 29.898250392595777
    vertex 133.18701761551227 60.60487641703533 29.898250392595788
  endloop
endfacet
facet normal -0.7933533402912439 -4.85722573273506e-17 -0.6087614290087094
  outer loop
    vertex 133.18701761551227 62.40487641703538 29.898250392595777
    vertex 133.50485486070804 60.60487641703539 29.484036830222678
    vertex 133.18701761551227 60.60487641703533 29.898250392595788
  endloop
endfacet
facet normal -0.7933533402912439 -4.85722573273506e-17 -0.6087614290087094
  outer loop
    vertex 133.50485486070804 60.60487641703539 29.484036830222678
    vertex 133.18701761551227 62.40487641703538 29.898250392595777
    vertex 133.50485486070804 62.40487641703541 29.4840368302227
  endloop
endfacet
facet normal -0.9238795325112764 1.97758476261356e-16 -0.38268343236511504
  outer loop
    vertex 133.50485486070804 62.40487641703541 29.4840368302227
    vertex 133.7046557057173 60.60487641703546 29.00167492042769
    vertex 133.50485486070804 60.60487641703539 29.484036830222678
  endloop
endfacet
facet normal -0.9238795325112764 1.97758476261356e-16 -0.38268343236511504
  outer loop
    vertex 133.7046557057173 60.60487641703546 29.00167492042769
    vertex 133.50485486070804 62.40487641703541 29.4840368302227
    vertex 133.7046557057173 62.40487641703533 29.00167492042777
  endloop
endfacet
facet normal -0.9914448613738129 -1.5612511283791264e-17 -0.13052619222003234
  outer loop
    vertex 133.7046557057173 60.60487641703546 29.00167492042769
    vertex 133.77280405313917 62.404876417035446 28.484036830222678
    vertex 133.77280405313917 60.60487641703539 28.484036830222713
  endloop
endfacet
facet normal -0.9914448613738129 -1.5612511283791264e-17 -0.13052619222003234
  outer loop
    vertex 133.77280405313917 62.404876417035446 28.484036830222678
    vertex 133.7046557057173 60.60487641703546 29.00167492042769
    vertex 133.7046557057173 62.40487641703533 29.00167492042777
  endloop
endfacet
facet normal -0.9914448613738135 -1.1275702593849249e-17 0.1305261922200295
  outer loop
    vertex 133.77280405313917 60.60487641703539 28.484036830222713
    vertex 133.7046557057173 62.40487641703536 27.966398740017645
    vertex 133.7046557057173 60.60487641703536 27.966398740017667
  endloop
endfacet
facet normal -0.9914448613738135 -1.1275702593849249e-17 0.1305261922200295
  outer loop
    vertex 133.7046557057173 62.40487641703536 27.966398740017645
    vertex 133.77280405313917 60.60487641703539 28.484036830222713
    vertex 133.77280405313917 62.404876417035446 28.484036830222678
  endloop
endfacet
facet normal -0.9238795325112733 -1.3530843112619095e-16 0.38268343236512226
  outer loop
    vertex 133.7046557057173 62.40487641703536 27.966398740017645
    vertex 133.50485486070804 60.60487641703537 27.484036830222692
    vertex 133.7046557057173 60.60487641703536 27.966398740017667
  endloop
endfacet
facet normal -0.9238795325112733 -1.3530843112619095e-16 0.38268343236512226
  outer loop
    vertex 133.50485486070804 60.60487641703537 27.484036830222692
    vertex 133.7046557057173 62.40487641703536 27.966398740017645
    vertex 133.50485486070804 62.40487641703539 27.484036830222728
  endloop
endfacet
facet normal -0.7933533402912439 4.85722573273506e-17 0.6087614290087094
  outer loop
    vertex 133.50485486070804 62.40487641703539 27.484036830222728
    vertex 133.18701761551227 60.60487641703544 27.069823267849568
    vertex 133.50485486070804 60.60487641703537 27.484036830222692
  endloop
endfacet
facet normal -0.7933533402912439 4.85722573273506e-17 0.6087614290087094
  outer loop
    vertex 133.18701761551227 60.60487641703544 27.069823267849568
    vertex 133.50485486070804 62.40487641703539 27.484036830222728
    vertex 133.18701761551227 62.40487641703537 27.06982326784966
  endloop
endfacet
facet normal -0.6087614290087264 -9.020562075079399e-17 0.7933533402912308
  outer loop
    vertex 133.18701761551227 60.60487641703544 27.069823267849568
    vertex 132.77280405313917 62.404876417035425 26.751986022653824
    vertex 132.77280405313917 60.60487641703537 26.751986022653778
  endloop
endfacet
facet normal -0.6087614290087264 -9.020562075079399e-17 0.7933533402912308
  outer loop
    vertex 132.77280405313917 62.404876417035425 26.751986022653824
    vertex 133.18701761551227 60.60487641703544 27.069823267849568
    vertex 133.18701761551227 62.40487641703537 27.06982326784966
  endloop
endfacet
facet normal -0.38268343236508584 -3.191891195797325e-16 0.9238795325112883
  outer loop
    vertex 132.77280405313917 60.60487641703537 26.751986022653778
    vertex 132.29044214334422 62.40487641703541 26.552185177644546
    vertex 132.29044214334422 60.604876417035406 26.552185177644557
  endloop
endfacet
facet normal -0.38268343236508584 -3.191891195797325e-16 0.9238795325112883
  outer loop
    vertex 132.29044214334422 62.40487641703541 26.552185177644546
    vertex 132.77280405313917 60.60487641703537 26.751986022653778
    vertex 132.77280405313917 62.404876417035425 26.751986022653824
  endloop
endfacet
facet normal -0.1305261922200508 2.081668171172168e-17 0.9914448613738105
  outer loop
    vertex 132.29044214334422 60.604876417035406 26.552185177644557
    vertex 131.77280405313917 62.40487641703538 26.48403683022267
    vertex 131.77280405313917 60.604876417035335 26.484036830222717
  endloop
endfacet
facet normal -0.1305261922200508 2.081668171172168e-17 0.9914448613738105
  outer loop
    vertex 131.77280405313917 62.40487641703538 26.48403683022267
    vertex 132.29044214334422 60.604876417035406 26.552185177644557
    vertex 132.29044214334422 62.40487641703541 26.552185177644546
  endloop
endfacet
facet normal 0.1305261922200508 2.081668171172168e-17 0.9914448613738105
  outer loop
    vertex 131.77280405313917 60.604876417035335 26.484036830222717
    vertex 131.25516596293411 62.40487641703541 26.552185177644546
    vertex 131.25516596293411 60.604876417035406 26.552185177644557
  endloop
endfacet
facet normal 0.1305261922200508 2.081668171172168e-17 0.9914448613738105
  outer loop
    vertex 131.25516596293411 62.40487641703541 26.552185177644546
    vertex 131.77280405313917 60.604876417035335 26.484036830222717
    vertex 131.77280405313917 62.40487641703538 26.48403683022267
  endloop
endfacet
facet normal 0.38268343236508584 -3.191891195797325e-16 0.9238795325112883
  outer loop
    vertex 131.25516596293411 60.604876417035406 26.552185177644557
    vertex 130.77280405313917 62.404876417035425 26.751986022653824
    vertex 130.77280405313917 60.60487641703537 26.751986022653778
  endloop
endfacet
facet normal 0.38268343236508584 -3.191891195797325e-16 0.9238795325112883
  outer loop
    vertex 130.77280405313917 62.404876417035425 26.751986022653824
    vertex 131.25516596293411 60.604876417035406 26.552185177644557
    vertex 131.25516596293411 62.40487641703541 26.552185177644546
  endloop
endfacet
facet normal 0.6087614290087264 -9.020562075079399e-17 0.7933533402912308
  outer loop
    vertex 130.77280405313917 60.60487641703537 26.751986022653778
    vertex 130.35859049076606 62.40487641703537 27.06982326784966
    vertex 130.35859049076606 60.60487641703544 27.069823267849568
  endloop
endfacet
facet normal 0.6087614290087264 -9.020562075079399e-17 0.7933533402912308
  outer loop
    vertex 130.35859049076606 62.40487641703537 27.06982326784966
    vertex 130.77280405313917 60.60487641703537 26.751986022653778
    vertex 130.77280405313917 62.404876417035425 26.751986022653824
  endloop
endfacet
facet normal 0.7933533402912439 4.85722573273506e-17 0.6087614290087094
  outer loop
    vertex 130.35859049076606 60.60487641703544 27.069823267849568
    vertex 130.0407532455703 62.40487641703539 27.484036830222728
    vertex 130.0407532455703 60.60487641703537 27.484036830222692
  endloop
endfacet
facet normal 0.7933533402912439 4.85722573273506e-17 0.6087614290087094
  outer loop
    vertex 130.0407532455703 62.40487641703539 27.484036830222728
    vertex 130.35859049076606 60.60487641703544 27.069823267849568
    vertex 130.35859049076606 62.40487641703537 27.06982326784966
  endloop
endfacet
facet normal 0.9238795325112733 -1.3530843112619095e-16 0.38268343236512226
  outer loop
    vertex 130.0407532455703 60.60487641703537 27.484036830222692
    vertex 129.84095240056104 62.40487641703536 27.966398740017645
    vertex 129.84095240056104 60.60487641703536 27.966398740017667
  endloop
endfacet
facet normal 0.9238795325112733 -1.3530843112619095e-16 0.38268343236512226
  outer loop
    vertex 129.84095240056104 62.40487641703536 27.966398740017645
    vertex 130.0407532455703 60.60487641703537 27.484036830222692
    vertex 130.0407532455703 62.40487641703539 27.484036830222728
  endloop
endfacet
facet normal -0.9914448613738129 -1.5612511283791264e-17 -0.13052619222003234
  outer loop
    vertex 103.70465570571733 60.60487641703546 29.00167492042769
    vertex 103.77280405313918 62.404876417035446 28.484036830222678
    vertex 103.77280405313918 60.60487641703539 28.484036830222713
  endloop
endfacet
facet normal -0.9914448613738129 -1.5612511283791264e-17 -0.13052619222003234
  outer loop
    vertex 103.77280405313918 62.404876417035446 28.484036830222678
    vertex 103.70465570571733 60.60487641703546 29.00167492042769
    vertex 103.70465570571733 62.40487641703533 29.00167492042777
  endloop
endfacet
facet normal -0.9914448613738135 -1.1275702593849249e-17 0.1305261922200295
  outer loop
    vertex 103.77280405313918 60.60487641703539 28.484036830222713
    vertex 103.70465570571733 62.40487641703536 27.966398740017645
    vertex 103.70465570571733 60.60487641703536 27.966398740017667
  endloop
endfacet
facet normal -0.9914448613738135 -1.1275702593849249e-17 0.1305261922200295
  outer loop
    vertex 103.70465570571733 62.40487641703536 27.966398740017645
    vertex 103.77280405313918 60.60487641703539 28.484036830222713
    vertex 103.77280405313918 62.404876417035446 28.484036830222678
  endloop
endfacet
facet normal -0.9238795325112733 -1.3530843112619095e-16 0.38268343236512226
  outer loop
    vertex 103.70465570571733 62.40487641703536 27.966398740017645
    vertex 103.50485486070805 60.60487641703537 27.484036830222692
    vertex 103.70465570571733 60.60487641703536 27.966398740017667
  endloop
endfacet
facet normal -0.9238795325112733 -1.3530843112619095e-16 0.38268343236512226
  outer loop
    vertex 103.50485486070805 60.60487641703537 27.484036830222692
    vertex 103.70465570571733 62.40487641703536 27.966398740017645
    vertex 103.50485486070805 62.40487641703539 27.484036830222728
  endloop
endfacet
facet normal -0.7933533402912439 4.85722573273506e-17 0.6087614290087094
  outer loop
    vertex 103.50485486070805 62.40487641703539 27.484036830222728
    vertex 103.18701761551227 60.60487641703544 27.069823267849568
    vertex 103.50485486070805 60.60487641703537 27.484036830222692
  endloop
endfacet
facet normal -0.7933533402912439 4.85722573273506e-17 0.6087614290087094
  outer loop
    vertex 103.18701761551227 60.60487641703544 27.069823267849568
    vertex 103.50485486070805 62.40487641703539 27.484036830222728
    vertex 103.18701761551227 62.40487641703537 27.06982326784966
  endloop
endfacet
facet normal -0.6087614290087264 -9.020562075079399e-17 0.7933533402912308
  outer loop
    vertex 103.18701761551227 60.60487641703544 27.069823267849568
    vertex 102.77280405313918 62.404876417035425 26.751986022653824
    vertex 102.77280405313918 60.60487641703537 26.751986022653778
  endloop
endfacet
facet normal -0.6087614290087264 -9.020562075079399e-17 0.7933533402912308
  outer loop
    vertex 102.77280405313918 62.404876417035425 26.751986022653824
    vertex 103.18701761551227 60.60487641703544 27.069823267849568
    vertex 103.18701761551227 62.40487641703537 27.06982326784966
  endloop
endfacet
facet normal -0.38268343236508584 -3.191891195797325e-16 0.9238795325112883
  outer loop
    vertex 102.77280405313918 60.60487641703537 26.751986022653778
    vertex 102.29044214334422 62.40487641703541 26.552185177644546
    vertex 102.29044214334422 60.604876417035406 26.552185177644557
  endloop
endfacet
facet normal -0.38268343236508584 -3.191891195797325e-16 0.9238795325112883
  outer loop
    vertex 102.29044214334422 62.40487641703541 26.552185177644546
    vertex 102.77280405313918 60.60487641703537 26.751986022653778
    vertex 102.77280405313918 62.404876417035425 26.751986022653824
  endloop
endfacet
facet normal -0.1305261922200508 2.081668171172168e-17 0.9914448613738105
  outer loop
    vertex 102.29044214334422 60.604876417035406 26.552185177644557
    vertex 101.77280405313918 62.40487641703538 26.48403683022267
    vertex 101.77280405313918 60.604876417035335 26.484036830222717
  endloop
endfacet
facet normal -0.1305261922200508 2.081668171172168e-17 0.9914448613738105
  outer loop
    vertex 101.77280405313918 62.40487641703538 26.48403683022267
    vertex 102.29044214334422 60.604876417035406 26.552185177644557
    vertex 102.29044214334422 62.40487641703541 26.552185177644546
  endloop
endfacet
facet normal 0.1305261922200508 2.081668171172168e-17 0.9914448613738105
  outer loop
    vertex 101.77280405313918 60.604876417035335 26.484036830222717
    vertex 101.25516596293413 62.40487641703541 26.552185177644546
    vertex 101.25516596293413 60.604876417035406 26.552185177644557
  endloop
endfacet
facet normal 0.1305261922200508 2.081668171172168e-17 0.9914448613738105
  outer loop
    vertex 101.25516596293413 62.40487641703541 26.552185177644546
    vertex 101.77280405313918 60.604876417035335 26.484036830222717
    vertex 101.77280405313918 62.40487641703538 26.48403683022267
  endloop
endfacet
facet normal 0.38268343236508584 -3.191891195797325e-16 0.9238795325112883
  outer loop
    vertex 101.25516596293413 60.604876417035406 26.552185177644557
    vertex 100.77280405313918 62.404876417035425 26.751986022653824
    vertex 100.77280405313918 60.60487641703537 26.751986022653778
  endloop
endfacet
facet normal 0.38268343236508584 -3.191891195797325e-16 0.9238795325112883
  outer loop
    vertex 100.77280405313918 62.404876417035425 26.751986022653824
    vertex 101.25516596293413 60.604876417035406 26.552185177644557
    vertex 101.25516596293413 62.40487641703541 26.552185177644546
  endloop
endfacet
facet normal 0.6087614290087369 -8.326672684688677e-17 0.7933533402912228
  outer loop
    vertex 100.77280405313918 60.60487641703537 26.751986022653778
    vertex 100.35859049076609 62.40487641703537 27.06982326784966
    vertex 100.35859049076609 60.60487641703544 27.069823267849568
  endloop
endfacet
facet normal 0.6087614290087369 -8.326672684688677e-17 0.7933533402912228
  outer loop
    vertex 100.35859049076609 62.40487641703537 27.06982326784966
    vertex 100.77280405313918 60.60487641703537 26.751986022653778
    vertex 100.77280405313918 62.404876417035425 26.751986022653824
  endloop
endfacet
facet normal 0.7933533402912231 3.469446951953614e-18 0.6087614290087363
  outer loop
    vertex 100.35859049076609 60.60487641703544 27.069823267849568
    vertex 100.0407532455703 62.40487641703539 27.484036830222728
    vertex 100.0407532455703 60.60487641703537 27.484036830222692
  endloop
endfacet
facet normal 0.7933533402912231 3.469446951953614e-18 0.6087614290087363
  outer loop
    vertex 100.0407532455703 62.40487641703539 27.484036830222728
    vertex 100.35859049076609 60.60487641703544 27.069823267849568
    vertex 100.35859049076609 62.40487641703537 27.06982326784966
  endloop
endfacet
facet normal 0.9238795325112886 5.204170427930421e-17 0.38268343236508545
  outer loop
    vertex 100.0407532455703 60.60487641703537 27.484036830222692
    vertex 99.84095240056105 62.40487641703536 27.966398740017645
    vertex 99.84095240056105 60.60487641703536 27.966398740017667
  endloop
endfacet
facet normal 0.9238795325112886 5.204170427930421e-17 0.38268343236508545
  outer loop
    vertex 99.84095240056105 62.40487641703536 27.966398740017645
    vertex 100.0407532455703 60.60487641703537 27.484036830222692
    vertex 100.0407532455703 62.40487641703539 27.484036830222728
  endloop
endfacet
facet normal 0.9914448613738106 -2.6020852139652106e-18 0.13052619222005066
  outer loop
    vertex 99.84095240056105 62.40487641703536 27.966398740017645
    vertex 99.77280405313918 60.60487641703539 28.484036830222713
    vertex 99.84095240056105 60.60487641703536 27.966398740017667
  endloop
endfacet
facet normal 0.9914448613738106 -2.6020852139652106e-18 0.13052619222005066
  outer loop
    vertex 99.77280405313918 60.60487641703539 28.484036830222713
    vertex 99.84095240056105 62.40487641703536 27.966398740017645
    vertex 99.77280405313918 62.404876417035446 28.484036830222678
  endloop
endfacet
facet normal 0.9914448613738106 2.6020852139652106e-18 -0.13052619222005066
  outer loop
    vertex 99.77280405313918 62.404876417035446 28.484036830222678
    vertex 99.84095240056105 60.60487641703547 29.001674920427703
    vertex 99.77280405313918 60.60487641703539 28.484036830222713
  endloop
endfacet
facet normal 0.9914448613738106 2.6020852139652106e-18 -0.13052619222005066
  outer loop
    vertex 99.84095240056105 60.60487641703547 29.001674920427703
    vertex 99.77280405313918 62.404876417035446 28.484036830222678
    vertex 99.84095240056105 62.40487641703533 29.00167492042778
  endloop
endfacet
facet normal 0.9238795325112886 -5.204170427930421e-17 -0.38268343236508545
  outer loop
    vertex 99.84095240056105 60.60487641703547 29.001674920427703
    vertex 100.0407532455703 62.40487641703541 29.4840368302227
    vertex 100.0407532455703 60.60487641703539 29.484036830222678
  endloop
endfacet
facet normal 0.9238795325112886 -5.204170427930421e-17 -0.38268343236508545
  outer loop
    vertex 100.0407532455703 62.40487641703541 29.4840368302227
    vertex 99.84095240056105 60.60487641703547 29.001674920427703
    vertex 99.84095240056105 62.40487641703533 29.00167492042778
  endloop
endfacet
facet normal 0.7933533402912231 -3.469446951953614e-18 -0.6087614290087363
  outer loop
    vertex 100.0407532455703 60.60487641703539 29.484036830222678
    vertex 100.35859049076609 62.40487641703538 29.898250392595777
    vertex 100.35859049076609 60.60487641703533 29.898250392595788
  endloop
endfacet
facet normal 0.7933533402912231 -3.469446951953614e-18 -0.6087614290087363
  outer loop
    vertex 100.35859049076609 62.40487641703538 29.898250392595777
    vertex 100.0407532455703 60.60487641703539 29.484036830222678
    vertex 100.0407532455703 62.40487641703541 29.4840368302227
  endloop
endfacet
facet normal 0.6087614290087369 8.326672684688677e-17 -0.7933533402912228
  outer loop
    vertex 100.77280405313918 62.40487641703535 30.216087637791603
    vertex 100.35859049076609 60.60487641703533 29.898250392595788
    vertex 100.35859049076609 62.40487641703538 29.898250392595777
  endloop
endfacet
facet normal 0.6087614290087369 8.326672684688677e-17 -0.7933533402912228
  outer loop
    vertex 100.35859049076609 60.60487641703533 29.898250392595788
    vertex 100.77280405313918 62.40487641703535 30.216087637791603
    vertex 100.77280405313918 60.60487641703535 30.21608763779158
  endloop
endfacet
facet normal 0.3826834323650787 4.3021142204224826e-16 -0.9238795325112915
  outer loop
    vertex 101.25516596293414 62.40487641703541 30.415888482800845
    vertex 100.77280405313918 60.60487641703535 30.21608763779158
    vertex 100.77280405313918 62.40487641703535 30.216087637791603
  endloop
endfacet
facet normal 0.3826834323650787 4.3021142204224826e-16 -0.9238795325112915
  outer loop
    vertex 100.77280405313918 60.60487641703535 30.21608763779158
    vertex 101.25516596293414 62.40487641703541 30.415888482800845
    vertex 101.25516596293414 60.60487641703533 30.415888482800856
  endloop
endfacet
facet normal 0.13052619222005357 -2.1510571102112408e-16 -0.9914448613738102
  outer loop
    vertex 101.77280405313918 62.40487641703541 30.484036830222664
    vertex 101.25516596293414 60.60487641703533 30.415888482800856
    vertex 101.25516596293414 62.40487641703541 30.415888482800845
  endloop
endfacet
facet normal 0.13052619222005357 -2.1510571102112408e-16 -0.9914448613738102
  outer loop
    vertex 101.25516596293414 60.60487641703533 30.415888482800856
    vertex 101.77280405313918 62.40487641703541 30.484036830222664
    vertex 101.77280405313918 60.60487641703539 30.484036830222664
  endloop
endfacet
facet normal -0.1305261922200508 -2.081668171172168e-17 -0.9914448613738105
  outer loop
    vertex 102.29044214334422 62.40487641703541 30.415888482800845
    vertex 101.77280405313918 60.60487641703539 30.484036830222664
    vertex 101.77280405313918 62.40487641703541 30.484036830222664
  endloop
endfacet
facet normal -0.1305261922200508 -2.081668171172168e-17 -0.9914448613738105
  outer loop
    vertex 101.77280405313918 60.60487641703539 30.484036830222664
    vertex 102.29044214334422 62.40487641703541 30.415888482800845
    vertex 102.29044214334422 60.60487641703533 30.415888482800856
  endloop
endfacet
facet normal -0.38268343236508584 3.191891195797325e-16 -0.9238795325112883
  outer loop
    vertex 102.77280405313918 62.40487641703535 30.216087637791603
    vertex 102.29044214334422 60.60487641703533 30.415888482800856
    vertex 102.29044214334422 62.40487641703541 30.415888482800845
  endloop
endfacet
facet normal -0.38268343236508584 3.191891195797325e-16 -0.9238795325112883
  outer loop
    vertex 102.29044214334422 60.60487641703533 30.415888482800856
    vertex 102.77280405313918 62.40487641703535 30.216087637791603
    vertex 102.77280405313918 60.60487641703535 30.21608763779158
  endloop
endfacet
facet normal -0.6087614290087264 9.020562075079399e-17 -0.7933533402912308
  outer loop
    vertex 103.18701761551227 62.40487641703538 29.898250392595777
    vertex 102.77280405313918 60.60487641703535 30.21608763779158
    vertex 102.77280405313918 62.40487641703535 30.216087637791603
  endloop
endfacet
facet normal -0.6087614290087264 9.020562075079399e-17 -0.7933533402912308
  outer loop
    vertex 102.77280405313918 60.60487641703535 30.21608763779158
    vertex 103.18701761551227 62.40487641703538 29.898250392595777
    vertex 103.18701761551227 60.60487641703533 29.898250392595788
  endloop
endfacet
facet normal -0.7933533402912439 -4.85722573273506e-17 -0.6087614290087094
  outer loop
    vertex 103.18701761551227 62.40487641703538 29.898250392595777
    vertex 103.50485486070805 60.60487641703539 29.484036830222678
    vertex 103.18701761551227 60.60487641703533 29.898250392595788
  endloop
endfacet
facet normal -0.7933533402912439 -4.85722573273506e-17 -0.6087614290087094
  outer loop
    vertex 103.50485486070805 60.60487641703539 29.484036830222678
    vertex 103.18701761551227 62.40487641703538 29.898250392595777
    vertex 103.50485486070805 62.40487641703541 29.4840368302227
  endloop
endfacet
facet normal -0.9238795325112764 1.97758476261356e-16 -0.38268343236511504
  outer loop
    vertex 103.50485486070805 62.40487641703541 29.4840368302227
    vertex 103.70465570571733 60.60487641703546 29.00167492042769
    vertex 103.50485486070805 60.60487641703539 29.484036830222678
  endloop
endfacet
facet normal -0.9238795325112764 1.97758476261356e-16 -0.38268343236511504
  outer loop
    vertex 103.70465570571733 60.60487641703546 29.00167492042769
    vertex 103.50485486070805 62.40487641703541 29.4840368302227
    vertex 103.70465570571733 62.40487641703533 29.00167492042777
  endloop
endfacet
facet normal 0.0 -4.093947403305264e-16 1.0
  outer loop
    vertex 144.27280405313917 60.60487641703533 33.333986644061156
    vertex 89.27280405313915 62.40487641703536 33.33398664406117
    vertex 89.27280405313915 60.60487641703533 33.333986644061156
  endloop
endfacet
facet normal 0.0 -4.093947403305264e-16 1.0
  outer loop
    vertex 89.27280405313915 62.40487641703536 33.33398664406117
    vertex 144.27280405313917 60.60487641703533 33.333986644061156
    vertex 144.27280405313917 62.40487641703536 33.33398664406117
  endloop
endfacet
facet normal 0.0 4.093947403305264e-16 -1.0
  outer loop
    vertex 89.27280405313915 120.60487641703547 21.484036830222625
    vertex 99.27280405313917 110.6048764170355 21.48403683022265
    vertex 89.27280405313915 90.60487641703536 21.484036830222713
  endloop
endfacet
facet normal 0.0 4.093947403305264e-16 -1.0
  outer loop
    vertex 99.27280405313917 110.6048764170355 21.48403683022265
    vertex 89.27280405313915 120.60487641703547 21.484036830222625
    vertex 116.77280405313917 120.60487641703547 21.484036830222625
  endloop
endfacet
facet normal 0.0 4.093947403305264e-16 -1.0
  outer loop
    vertex 99.27280405313917 110.6048764170355 21.48403683022265
    vertex 116.77280405313917 120.60487641703547 21.484036830222625
    vertex 116.77280405313917 110.6048764170355 21.48403683022265
  endloop
endfacet
facet normal 0.0 4.093947403305264e-16 -1.0
  outer loop
    vertex 99.27280405313917 90.60487641703536 21.484036830222713
    vertex 89.27280405313915 90.60487641703536 21.484036830222713
    vertex 99.27280405313917 110.6048764170355 21.48403683022265
  endloop
endfacet
facet normal -1.0 0.0 0.0
  outer loop
    vertex 89.27280405313915 62.40487641703536 33.33398664406117
    vertex 89.27280405313915 60.604876417035385 21.484036830222717
    vertex 89.27280405313915 60.60487641703533 33.333986644061156
  endloop
endfacet
facet normal -1.0 0.0 0.0
  outer loop
    vertex 89.27280405313915 60.604876417035385 21.484036830222717
    vertex 89.27280405313915 62.40487641703536 33.33398664406117
    vertex 89.27280405313915 62.404876417035425 23.484036830222692
  endloop
endfacet
facet normal -1.0 0.0 0.0
  outer loop
    vertex 89.27280405313915 60.604876417035385 21.484036830222717
    vertex 89.27280405313915 62.404876417035425 23.484036830222692
    vertex 89.27280405313915 90.60487641703536 21.484036830222713
  endloop
endfacet
facet normal -1.0 0.0 0.0
  outer loop
    vertex 89.27280405313915 90.60487641703536 21.484036830222713
    vertex 89.27280405313915 62.404876417035425 23.484036830222692
    vertex 89.27280405313915 120.60487641703543 23.484036830222703
  endloop
endfacet
facet normal -1.0 0.0 0.0
  outer loop
    vertex 89.27280405313915 90.60487641703536 21.484036830222713
    vertex 89.27280405313915 120.60487641703543 23.484036830222703
    vertex 89.27280405313915 120.60487641703547 21.484036830222625
  endloop
endfacet
facet normal 0.0 1.0 4.093947403305264e-16
  outer loop
    vertex 89.27280405313915 120.60487641703543 23.484036830222703
    vertex 116.77280405313917 120.60487641703547 21.484036830222625
    vertex 89.27280405313915 120.60487641703547 21.484036830222625
  endloop
endfacet
facet normal 0.0 1.0 4.093947403305264e-16
  outer loop
    vertex 116.77280405313917 120.60487641703547 21.484036830222625
    vertex 89.27280405313915 120.60487641703543 23.484036830222703
    vertex 144.27280405313917 120.60487641703547 21.484036830222625
  endloop
endfacet
facet normal 0.0 1.0 4.093947403305264e-16
  outer loop
    vertex 144.27280405313917 120.60487641703547 21.484036830222625
    vertex 89.27280405313915 120.60487641703543 23.484036830222703
    vertex 144.27280405313917 120.60487641703543 23.484036830222703
  endloop
endfacet
facet normal 1.0 0.0 0.0
  outer loop
    vertex 144.27280405313917 60.604876417035385 21.484036830222717
    vertex 144.27280405313917 62.40487641703536 33.33398664406117
    vertex 144.27280405313917 60.60487641703533 33.333986644061156
  endloop
endfacet
facet normal 1.0 0.0 0.0
  outer loop
    vertex 144.27280405313917 62.40487641703536 33.33398664406117
    vertex 144.27280405313917 60.604876417035385 21.484036830222717
    vertex 144.27280405313917 62.404876417035425 23.484036830222692
  endloop
endfacet
facet normal 1.0 0.0 0.0
  outer loop
    vertex 144.27280405313917 62.404876417035425 23.484036830222692
    vertex 144.27280405313917 60.604876417035385 21.484036830222717
    vertex 144.27280405313917 90.60487641703536 21.484036830222713
  endloop
endfacet
facet normal 1.0 0.0 0.0
  outer loop
    vertex 144.27280405313917 62.404876417035425 23.484036830222692
    vertex 144.27280405313917 90.60487641703536 21.484036830222713
    vertex 144.27280405313917 120.60487641703543 23.484036830222703
  endloop
endfacet
facet normal 1.0 0.0 0.0
  outer loop
    vertex 144.27280405313917 120.60487641703543 23.484036830222703
    vertex 144.27280405313917 90.60487641703536 21.484036830222713
    vertex 144.27280405313917 120.60487641703547 21.484036830222625
  endloop
endfacet
facet normal 0.0 -4.093947403305264e-16 1.0
  outer loop
    vertex 89.27280405313915 62.404876417035425 23.484036830222692
    vertex 99.27280405313917 70.60487641703543 23.48403683022268
    vertex 89.27280405313915 120.60487641703543 23.484036830222703
  endloop
endfacet
facet normal 0.0 -4.093947403305264e-16 1.0
  outer loop
    vertex 99.27280405313917 70.60487641703543 23.48403683022268
    vertex 89.27280405313915 62.404876417035425 23.484036830222692
    vertex 144.27280405313917 62.404876417035425 23.484036830222692
  endloop
endfacet
facet normal 0.0 -4.093947403305264e-16 1.0
  outer loop
    vertex 99.27280405313917 70.60487641703543 23.48403683022268
    vertex 144.27280405313917 62.404876417035425 23.484036830222692
    vertex 116.77280405313917 70.60487641703543 23.48403683022268
  endloop
endfacet
facet normal 0.0 -4.093947403305264e-16 1.0
  outer loop
    vertex 116.77280405313917 70.60487641703543 23.48403683022268
    vertex 144.27280405313917 62.404876417035425 23.484036830222692
    vertex 134.27280405313917 70.60487641703543 23.48403683022268
  endloop
endfacet
facet normal 0.0 -4.093947403305264e-16 1.0
  outer loop
    vertex 134.27280405313917 70.60487641703543 23.48403683022268
    vertex 144.27280405313917 62.404876417035425 23.484036830222692
    vertex 134.27280405313917 90.60487641703536 23.484036830222657
  endloop
endfacet
facet normal 0.0 -4.093947403305264e-16 1.0
  outer loop
    vertex 134.27280405313917 90.60487641703536 23.484036830222657
    vertex 144.27280405313917 62.404876417035425 23.484036830222692
    vertex 134.27280405313917 110.6048764170354 23.48403683022268
  endloop
endfacet
facet normal 0.0 -4.093947403305264e-16 1.0
  outer loop
    vertex 89.27280405313915 120.60487641703543 23.484036830222703
    vertex 99.27280405313917 110.6048764170354 23.48403683022268
    vertex 144.27280405313917 120.60487641703543 23.484036830222703
  endloop
endfacet
facet normal 0.0 -4.093947403305264e-16 1.0
  outer loop
    vertex 99.27280405313917 110.6048764170354 23.48403683022268
    vertex 89.27280405313915 120.60487641703543 23.484036830222703
    vertex 99.27280405313917 70.60487641703543 23.48403683022268
  endloop
endfacet
facet normal 0.0 -4.093947403305264e-16 1.0
  outer loop
    vertex 99.27280405313917 110.6048764170354 23.48403683022268
    vertex 99.27280405313917 70.60487641703543 23.48403683022268
    vertex 99.27280405313917 90.60487641703536 23.484036830222657
  endloop
endfacet
facet normal 0.0 -4.093947403305264e-16 1.0
  outer loop
    vertex 144.27280405313917 120.60487641703543 23.484036830222703
    vertex 99.27280405313917 110.6048764170354 23.48403683022268
    vertex 116.77280405313917 110.6048764170354 23.48403683022268
  endloop
endfacet
facet normal 0.0 -4.093947403305264e-16 1.0
  outer loop
    vertex 144.27280405313917 120.60487641703543 23.484036830222703
    vertex 116.77280405313917 110.6048764170354 23.48403683022268
    vertex 134.27280405313917 110.6048764170354 23.48403683022268
  endloop
endfacet
facet normal 0.0 -4.093947403305264e-16 1.0
  outer loop
    vertex 144.27280405313917 120.60487641703543 23.484036830222703
    vertex 134.27280405313917 110.6048764170354 23.48403683022268
    vertex 144.27280405313917 62.404876417035425 23.484036830222692
  endloop
endfacet
facet normal 0.0 4.093947403305264e-16 -1.0
  outer loop
    vertex 144.27280405313917 120.60487641703547 21.484036830222625
    vertex 116.77280405313917 110.6048764170355 21.48403683022265
    vertex 116.77280405313917 120.60487641703547 21.484036830222625
  endloop
endfacet
facet normal 0.0 4.093947403305264e-16 -1.0
  outer loop
    vertex 116.77280405313917 110.6048764170355 21.48403683022265
    vertex 144.27280405313917 120.60487641703547 21.484036830222625
    vertex 134.27280405313917 110.6048764170355 21.48403683022265
  endloop
endfacet
facet normal 0.0 4.093947403305264e-16 -1.0
  outer loop
    vertex 134.27280405313917 110.6048764170355 21.48403683022265
    vertex 144.27280405313917 120.60487641703547 21.484036830222625
    vertex 134.27280405313917 90.60487641703536 21.484036830222713
  endloop
endfacet
facet normal 0.0 4.093947403305264e-16 -1.0
  outer loop
    vertex 134.27280405313917 90.60487641703536 21.484036830222713
    vertex 144.27280405313917 120.60487641703547 21.484036830222625
    vertex 144.27280405313917 90.60487641703536 21.484036830222713
  endloop
endfacet
facet normal 0.0 4.093947403305264e-16 -1.0
  outer loop
    vertex 99.27280405313917 90.60487641703536 21.484036830222713
    vertex 89.27280405313915 60.604876417035385 21.484036830222717
    vertex 89.27280405313915 90.60487641703536 21.484036830222713
  endloop
endfacet
facet normal 0.0 4.093947403305264e-16 -1.0
  outer loop
    vertex 89.27280405313915 60.604876417035385 21.484036830222717
    vertex 99.27280405313917 90.60487641703536 21.484036830222713
    vertex 99.27280405313917 70.60487641703533 21.484036830222752
  endloop
endfacet
facet normal 0.0 4.093947403305264e-16 -1.0
  outer loop
    vertex 89.27280405313915 60.604876417035385 21.484036830222717
    vertex 99.27280405313917 70.60487641703533 21.484036830222752
    vertex 116.77280405313917 60.604876417035385 21.484036830222717
  endloop
endfacet
facet normal 0.0 4.093947403305264e-16 -1.0
  outer loop
    vertex 116.77280405313917 60.604876417035385 21.484036830222717
    vertex 99.27280405313917 70.60487641703533 21.484036830222752
    vertex 116.77280405313917 70.60487641703531 21.484036830222756
  endloop
endfacet
facet normal 0.0 4.093947403305264e-16 -1.0
  outer loop
    vertex 144.27280405313917 90.60487641703536 21.484036830222713
    vertex 134.27280405313917 70.60487641703533 21.484036830222752
    vertex 134.27280405313917 90.60487641703536 21.484036830222713
  endloop
endfacet
facet normal 0.0 4.093947403305264e-16 -1.0
  outer loop
    vertex 134.27280405313917 70.60487641703533 21.484036830222752
    vertex 116.77280405313917 60.604876417035385 21.484036830222717
    vertex 116.77280405313917 70.60487641703531 21.484036830222756
  endloop
endfacet
facet normal 0.0 4.093947403305264e-16 -1.0
  outer loop
    vertex 116.77280405313917 60.604876417035385 21.484036830222717
    vertex 134.27280405313917 70.60487641703533 21.484036830222752
    vertex 144.27280405313917 60.604876417035385 21.484036830222717
  endloop
endfacet
facet normal 0.0 4.093947403305264e-16 -1.0
  outer loop
    vertex 144.27280405313917 60.604876417035385 21.484036830222717
    vertex 134.27280405313917 70.60487641703533 21.484036830222752
    vertex 144.27280405313917 90.60487641703536 21.484036830222713
  endloop
endfacet
facet normal -1.0 0.0 0.0
  outer loop
    vertex 134.27280405313917 110.6048764170354 23.48403683022268
    vertex 134.27280405313917 90.60487641703536 21.484036830222713
    vertex 134.27280405313917 90.60487641703536 23.484036830222657
  endloop
endfacet
facet normal -1.0 0.0 0.0
  outer loop
    vertex 134.27280405313917 90.60487641703536 21.484036830222713
    vertex 134.27280405313917 110.6048764170354 23.48403683022268
    vertex 134.27280405313917 110.6048764170355 21.48403683022265
  endloop
endfacet
facet normal -1.0 0.0 0.0
  outer loop
    vertex 134.27280405313917 70.60487641703543 23.48403683022268
    vertex 134.27280405313917 90.60487641703536 21.484036830222713
    vertex 134.27280405313917 70.60487641703533 21.484036830222752
  endloop
endfacet
facet normal -1.0 0.0 0.0
  outer loop
    vertex 134.27280405313917 90.60487641703536 21.484036830222713
    vertex 134.27280405313917 70.60487641703543 23.48403683022268
    vertex 134.27280405313917 90.60487641703536 23.484036830222657
  endloop
endfacet
facet normal -1.6114094185988002e-16 1.0 4.093947403305264e-16
  outer loop
    vertex 116.77280405313917 70.60487641703531 21.484036830222756
    vertex 134.27280405313917 70.60487641703543 23.48403683022268
    vertex 134.27280405313917 70.60487641703533 21.484036830222752
  endloop
endfacet
facet normal -1.6114094185988002e-16 1.0 4.093947403305264e-16
  outer loop
    vertex 134.27280405313917 70.60487641703543 23.48403683022268
    vertex 116.77280405313917 70.60487641703531 21.484036830222756
    vertex 116.77280405313917 70.60487641703543 23.48403683022268
  endloop
endfacet
facet normal 1.6114094185987982e-16 1.0 4.093947403305264e-16
  outer loop
    vertex 99.27280405313917 70.60487641703543 23.48403683022268
    vertex 116.77280405313917 70.60487641703531 21.484036830222756
    vertex 99.27280405313917 70.60487641703533 21.484036830222752
  endloop
endfacet
facet normal 1.6114094185987982e-16 1.0 4.093947403305264e-16
  outer loop
    vertex 116.77280405313917 70.60487641703531 21.484036830222756
    vertex 99.27280405313917 70.60487641703543 23.48403683022268
    vertex 116.77280405313917 70.60487641703543 23.48403683022268
  endloop
endfacet
facet normal 1.0 0.0 0.0
  outer loop
    vertex 99.27280405313917 90.60487641703536 21.484036830222713
    vertex 99.27280405313917 70.60487641703543 23.48403683022268
    vertex 99.27280405313917 70.60487641703533 21.484036830222752
  endloop
endfacet
facet normal 1.0 0.0 0.0
  outer loop
    vertex 99.27280405313917 70.60487641703543 23.48403683022268
    vertex 99.27280405313917 90.60487641703536 21.484036830222713
    vertex 99.27280405313917 90.60487641703536 23.484036830222657
  endloop
endfacet
facet normal 1.0 0.0 0.0
  outer loop
    vertex 99.27280405313917 110.6048764170355 21.48403683022265
    vertex 99.27280405313917 90.60487641703536 23.484036830222657
    vertex 99.27280405313917 90.60487641703536 21.484036830222713
  endloop
endfacet
facet normal 1.0 0.0 0.0
  outer loop
    vertex 99.27280405313917 90.60487641703536 23.484036830222657
    vertex 99.27280405313917 110.6048764170355 21.48403683022265
    vertex 99.27280405313917 110.6048764170354 23.48403683022268
  endloop
endfacet
facet normal 0.0 -1.0 -4.093947403305264e-16
  outer loop
    vertex 116.77280405313917 110.6048764170354 23.48403683022268
    vertex 99.27280405313917 110.6048764170355 21.48403683022265
    vertex 116.77280405313917 110.6048764170355 21.48403683022265
  endloop
endfacet
facet normal 0.0 -1.0 -4.093947403305264e-16
  outer loop
    vertex 99.27280405313917 110.6048764170355 21.48403683022265
    vertex 116.77280405313917 110.6048764170354 23.48403683022268
    vertex 99.27280405313917 110.6048764170354 23.48403683022268
  endloop
endfacet
facet normal 0.0 -1.0 -4.093947403305264e-16
  outer loop
    vertex 134.27280405313917 110.6048764170354 23.48403683022268
    vertex 116.77280405313917 110.6048764170355 21.48403683022265
    vertex 134.27280405313917 110.6048764170355 21.48403683022265
  endloop
endfacet
facet normal 0.0 -1.0 -4.093947403305264e-16
  outer loop
    vertex 116.77280405313917 110.6048764170355 21.48403683022265
    vertex 134.27280405313917 110.6048764170354 23.48403683022268
    vertex 116.77280405313917 110.6048764170354 23.48403683022268
  endloop
endfacet
endsolid Case_solar
